<svg width="625" height="685" viewBox="0 0 625 685" fill="none" xmlns="http://www.w3.org/2000/svg">
<path d="M471 0C484.807 0 496 11.193 496 25V60H545L546.034 60.0068C589.396 60.5562 624.444 95.6039 624.993 138.966L625 140V605C625 648.838 589.74 684.439 546.034 684.993L545 685H80C35.8172 685 2.0536e-06 649.183 0 605V140L0.00683594 138.966C0.560555 95.2597 36.1625 60 80 60H124V25C124 11.193 135.193 0 149 0C162.807 0 174 11.193 174 25V60H446V25C446 11.193 457.193 0 471 0ZM80 110C63.4315 110 50 123.431 50 140V605C50 621.569 63.4315 635 80 635H545C561.569 635 575 621.569 575 605V140C575 123.431 561.569 110 545 110H496V135.003C496 148.81 484.807 160.003 471 160.003C457.193 160.003 446 148.81 446 135.003V110H174V135.003C174 148.81 162.807 160.003 149 160.003C135.193 160.003 124 148.81 124 135.003V110H80ZM428.187 281.46C437.874 271.622 453.702 271.499 463.54 281.187C473.378 290.874 473.5 306.702 463.813 316.54L307.429 475.368C295.556 487.426 276.065 487.284 264.37 475.053L202.431 410.277C192.889 400.298 193.244 384.474 203.223 374.932C213.202 365.39 229.027 365.744 238.569 375.723L286.263 425.601L428.187 281.46ZM111.5 188C122.546 188 131.5 196.954 131.5 208C131.5 219.046 122.546 228 111.5 228C100.454 228 91.5 219.046 91.5 208C91.5 196.954 100.454 188 111.5 188ZM176.5 188C187.546 188 196.5 196.954 196.5 208C196.5 219.046 187.546 228 176.5 228C165.454 228 156.5 219.046 156.5 208C156.5 196.954 165.454 188 176.5 188ZM403 197.5C408.799 197.5 413.5 202.201 413.5 208C413.5 213.799 408.799 218.5 403 218.5H245C239.201 218.5 234.5 213.799 234.5 208C234.5 202.201 239.201 197.5 245 197.5H403Z" fill="black"/>
</svg>
