<svg width="100" height="100" viewBox="0 0 100 100" fill="none" xmlns="http://www.w3.org/2000/svg">
  <defs>
    <mask id="dayflow-ring-mask">
      <circle cx="50" cy="50" r="50" fill="white" />
      <circle cx="50" cy="50" r="30" fill="black" />
    </mask>
  </defs>
  <g mask="url(#dayflow-ring-mask)">
    <path d="M50 50 L50.000 0.000 A50 50 0 0 1 51.745 0.030 Z" fill="#2666FB" />
    <path d="M50 50 L51.745 0.030 A50 50 0 0 1 53.488 0.122 Z" fill="#2768FB" />
    <path d="M50 50 L53.488 0.122 A50 50 0 0 1 55.226 0.274 Z" fill="#2869FB" />
    <path d="M50 50 L55.226 0.274 A50 50 0 0 1 56.959 0.487 Z" fill="#296BFB" />
    <path d="M50 50 L56.959 0.487 A50 50 0 0 1 58.682 0.760 Z" fill="#2A6DFB" />
    <path d="M50 50 L58.682 0.760 A50 50 0 0 1 60.396 1.093 Z" fill="#2B6FFB" />
    <path d="M50 50 L60.396 1.093 A50 50 0 0 1 62.096 1.485 Z" fill="#2C71FB" />
    <path d="M50 50 L62.096 1.485 A50 50 0 0 1 63.782 1.937 Z" fill="#2D72FB" />
    <path d="M50 50 L63.782 1.937 A50 50 0 0 1 65.451 2.447 Z" fill="#2E74FB" />
    <path d="M50 50 L65.451 2.447 A50 50 0 0 1 67.101 3.015 Z" fill="#2F76FC" />
    <path d="M50 50 L67.101 3.015 A50 50 0 0 1 68.730 3.641 Z" fill="#2F78FC" />
    <path d="M50 50 L68.730 3.641 A50 50 0 0 1 70.337 4.323 Z" fill="#307AFC" />
    <path d="M50 50 L70.337 4.323 A50 50 0 0 1 71.919 5.060 Z" fill="#317BFC" />
    <path d="M50 50 L71.919 5.060 A50 50 0 0 1 73.474 5.853 Z" fill="#327DFC" />
    <path d="M50 50 L73.474 5.853 A50 50 0 0 1 75.000 6.699 Z" fill="#337FFC" />
    <path d="M50 50 L75.000 6.699 A50 50 0 0 1 76.496 7.598 Z" fill="#3481FC" />
    <path d="M50 50 L76.496 7.598 A50 50 0 0 1 77.960 8.548 Z" fill="#3583FC" />
    <path d="M50 50 L77.960 8.548 A50 50 0 0 1 79.389 9.549 Z" fill="#3684FC" />
    <path d="M50 50 L79.389 9.549 A50 50 0 0 1 80.783 10.599 Z" fill="#3786FC" />
    <path d="M50 50 L80.783 10.599 A50 50 0 0 1 82.139 11.698 Z" fill="#3888FC" />
    <path d="M50 50 L82.139 11.698 A50 50 0 0 1 83.457 12.843 Z" fill="#388AFC" />
    <path d="M50 50 L83.457 12.843 A50 50 0 0 1 84.733 14.033 Z" fill="#398CFC" />
    <path d="M50 50 L84.733 14.033 A50 50 0 0 1 85.967 15.267 Z" fill="#3A8DFC" />
    <path d="M50 50 L85.967 15.267 A50 50 0 0 1 87.157 16.543 Z" fill="#3B8FFC" />
    <path d="M50 50 L87.157 16.543 A50 50 0 0 1 88.302 17.861 Z" fill="#3C91FC" />
    <path d="M50 50 L88.302 17.861 A50 50 0 0 1 89.401 19.217 Z" fill="#3D93FC" />
    <path d="M50 50 L89.401 19.217 A50 50 0 0 1 90.451 20.611 Z" fill="#3E95FC" />
    <path d="M50 50 L90.451 20.611 A50 50 0 0 1 91.452 22.040 Z" fill="#3F96FC" />
    <path d="M50 50 L91.452 22.040 A50 50 0 0 1 92.402 23.504 Z" fill="#4098FD" />
    <path d="M50 50 L92.402 23.504 A50 50 0 0 1 93.301 25.000 Z" fill="#419AFD" />
    <path d="M50 50 L93.301 25.000 A50 50 0 0 1 94.147 26.526 Z" fill="#419CFD" />
    <path d="M50 50 L94.147 26.526 A50 50 0 0 1 94.940 28.081 Z" fill="#429EFD" />
    <path d="M50 50 L94.940 28.081 A50 50 0 0 1 95.677 29.663 Z" fill="#439FFD" />
    <path d="M50 50 L95.677 29.663 A50 50 0 0 1 96.359 31.270 Z" fill="#44A1FD" />
    <path d="M50 50 L96.359 31.270 A50 50 0 0 1 96.985 32.899 Z" fill="#45A3FD" />
    <path d="M50 50 L96.985 32.899 A50 50 0 0 1 97.553 34.549 Z" fill="#46A5FD" />
    <path d="M50 50 L97.553 34.549 A50 50 0 0 1 98.063 36.218 Z" fill="#47A7FD" />
    <path d="M50 50 L98.063 36.218 A50 50 0 0 1 98.515 37.904 Z" fill="#48A8FD" />
    <path d="M50 50 L98.515 37.904 A50 50 0 0 1 98.907 39.604 Z" fill="#48A9FD" />
    <path d="M50 50 L98.907 39.604 A50 50 0 0 1 99.240 41.318 Z" fill="#48A9FD" />
    <path d="M50 50 L99.240 41.318 A50 50 0 0 1 99.513 43.041 Z" fill="#48A9FD" />
    <path d="M50 50 L99.513 43.041 A50 50 0 0 1 99.726 44.774 Z" fill="#48A9FD" />
    <path d="M50 50 L99.726 44.774 A50 50 0 0 1 99.878 46.512 Z" fill="#48A9FD" />
    <path d="M50 50 L99.878 46.512 A50 50 0 0 1 99.970 48.255 Z" fill="#48A9FD" />
    <path d="M50 50 L99.970 48.255 A50 50 0 0 1 100.000 50.000 Z" fill="#48A9FD" />
    <path d="M50 50 L100.000 50.000 A50 50 0 0 1 99.970 51.745 Z" fill="#48A9FD" />
    <path d="M50 50 L99.970 51.745 A50 50 0 0 1 99.878 53.488 Z" fill="#48A9FD" />
    <path d="M50 50 L99.878 53.488 A50 50 0 0 1 99.726 55.226 Z" fill="#48A9FD" />
    <path d="M50 50 L99.726 55.226 A50 50 0 0 1 99.513 56.959 Z" fill="#48A9FD" />
    <path d="M50 50 L99.513 56.959 A50 50 0 0 1 99.240 58.682 Z" fill="#48A9FD" />
    <path d="M50 50 L99.240 58.682 A50 50 0 0 1 98.907 60.396 Z" fill="#48A9FD" />
    <path d="M50 50 L98.907 60.396 A50 50 0 0 1 98.515 62.096 Z" fill="#48A9FD" />
    <path d="M50 50 L98.515 62.096 A50 50 0 0 1 98.063 63.782 Z" fill="#48A9FD" />
    <path d="M50 50 L98.063 63.782 A50 50 0 0 1 97.553 65.451 Z" fill="#48A9FD" />
    <path d="M50 50 L97.553 65.451 A50 50 0 0 1 96.985 67.101 Z" fill="#48A9FD" />
    <path d="M50 50 L96.985 67.101 A50 50 0 0 1 96.359 68.730 Z" fill="#48A9FD" />
    <path d="M50 50 L96.359 68.730 A50 50 0 0 1 95.677 70.337 Z" fill="#48A9FD" />
    <path d="M50 50 L95.677 70.337 A50 50 0 0 1 94.940 71.919 Z" fill="#48A8FD" />
    <path d="M50 50 L94.940 71.919 A50 50 0 0 1 94.147 73.474 Z" fill="#47A7FD" />
    <path d="M50 50 L94.147 73.474 A50 50 0 0 1 93.301 75.000 Z" fill="#47A6FD" />
    <path d="M50 50 L93.301 75.000 A50 50 0 0 1 92.402 76.496 Z" fill="#46A4FD" />
    <path d="M50 50 L92.402 76.496 A50 50 0 0 1 91.452 77.960 Z" fill="#46A3FD" />
    <path d="M50 50 L91.452 77.960 A50 50 0 0 1 90.451 79.389 Z" fill="#45A1FD" />
    <path d="M50 50 L90.451 79.389 A50 50 0 0 1 89.401 80.783 Z" fill="#45A0FD" />
    <path d="M50 50 L89.401 80.783 A50 50 0 0 1 88.302 82.139 Z" fill="#449FFD" />
    <path d="M50 50 L88.302 82.139 A50 50 0 0 1 87.157 83.457 Z" fill="#449DFD" />
    <path d="M50 50 L87.157 83.457 A50 50 0 0 1 85.967 84.733 Z" fill="#439CFD" />
    <path d="M50 50 L85.967 84.733 A50 50 0 0 1 84.733 85.967 Z" fill="#439BFD" />
    <path d="M50 50 L84.733 85.967 A50 50 0 0 1 83.457 87.157 Z" fill="#4299FD" />
    <path d="M50 50 L83.457 87.157 A50 50 0 0 1 82.139 88.302 Z" fill="#4298FD" />
    <path d="M50 50 L82.139 88.302 A50 50 0 0 1 80.783 89.401 Z" fill="#4196FD" />
    <path d="M50 50 L80.783 89.401 A50 50 0 0 1 79.389 90.451 Z" fill="#4195FD" />
    <path d="M50 50 L79.389 90.451 A50 50 0 0 1 77.960 91.452 Z" fill="#4094FD" />
    <path d="M50 50 L77.960 91.452 A50 50 0 0 1 76.496 92.402 Z" fill="#4092FD" />
    <path d="M50 50 L76.496 92.402 A50 50 0 0 1 75.000 93.301 Z" fill="#3F91FD" />
    <path d="M50 50 L75.000 93.301 A50 50 0 0 1 73.474 94.147 Z" fill="#3F90FD" />
    <path d="M50 50 L73.474 94.147 A50 50 0 0 1 71.919 94.940 Z" fill="#3E8EFD" />
    <path d="M50 50 L71.919 94.940 A50 50 0 0 1 70.337 95.677 Z" fill="#3E8DFD" />
    <path d="M50 50 L70.337 95.677 A50 50 0 0 1 68.730 96.359 Z" fill="#3D8BFD" />
    <path d="M50 50 L68.730 96.359 A50 50 0 0 1 67.101 96.985 Z" fill="#3D8AFD" />
    <path d="M50 50 L67.101 96.985 A50 50 0 0 1 65.451 97.553 Z" fill="#3C89FD" />
    <path d="M50 50 L65.451 97.553 A50 50 0 0 1 63.782 98.063 Z" fill="#3C87FD" />
    <path d="M50 50 L63.782 98.063 A50 50 0 0 1 62.096 98.515 Z" fill="#3B86FD" />
    <path d="M50 50 L62.096 98.515 A50 50 0 0 1 60.396 98.907 Z" fill="#3D84FD" />
    <path d="M50 50 L60.396 98.907 A50 50 0 0 1 58.682 99.240 Z" fill="#4382FD" />
    <path d="M50 50 L58.682 99.240 A50 50 0 0 1 56.959 99.513 Z" fill="#4880FD" />
    <path d="M50 50 L56.959 99.513 A50 50 0 0 1 55.226 99.726 Z" fill="#4E7EFD" />
    <path d="M50 50 L55.226 99.726 A50 50 0 0 1 53.488 99.878 Z" fill="#537BFC" />
    <path d="M50 50 L53.488 99.878 A50 50 0 0 1 51.745 99.970 Z" fill="#5979FC" />
    <path d="M50 50 L51.745 99.970 A50 50 0 0 1 50.000 100.000 Z" fill="#5E77FC" />
    <path d="M50 50 L50.000 100.000 A50 50 0 0 1 48.255 99.970 Z" fill="#6475FC" />
    <path d="M50 50 L48.255 99.970 A50 50 0 0 1 46.512 99.878 Z" fill="#6A73FC" />
    <path d="M50 50 L46.512 99.878 A50 50 0 0 1 44.774 99.726 Z" fill="#6F71FC" />
    <path d="M50 50 L44.774 99.726 A50 50 0 0 1 43.041 99.513 Z" fill="#756EFC" />
    <path d="M50 50 L43.041 99.513 A50 50 0 0 1 41.318 99.240 Z" fill="#7A6CFB" />
    <path d="M50 50 L41.318 99.240 A50 50 0 0 1 39.604 98.907 Z" fill="#806AFB" />
    <path d="M50 50 L39.604 98.907 A50 50 0 0 1 37.904 98.515 Z" fill="#8668FB" />
    <path d="M50 50 L37.904 98.515 A50 50 0 0 1 36.218 98.063 Z" fill="#8B66FA" />
    <path d="M50 50 L36.218 98.063 A50 50 0 0 1 34.549 97.553 Z" fill="#8E67F8" />
    <path d="M50 50 L34.549 97.553 A50 50 0 0 1 32.899 96.985 Z" fill="#9168F5" />
    <path d="M50 50 L32.899 96.985 A50 50 0 0 1 31.270 96.359 Z" fill="#9468F3" />
    <path d="M50 50 L31.270 96.359 A50 50 0 0 1 29.663 95.677 Z" fill="#9869F0" />
    <path d="M50 50 L29.663 95.677 A50 50 0 0 1 28.081 94.940 Z" fill="#9B6AED" />
    <path d="M50 50 L28.081 94.940 A50 50 0 0 1 26.526 94.147 Z" fill="#9E6AEB" />
    <path d="M50 50 L26.526 94.147 A50 50 0 0 1 25.000 93.301 Z" fill="#A16BE8" />
    <path d="M50 50 L25.000 93.301 A50 50 0 0 1 23.504 92.402 Z" fill="#A56CE5" />
    <path d="M50 50 L23.504 92.402 A50 50 0 0 1 22.040 91.452 Z" fill="#A86CE3" />
    <path d="M50 50 L22.040 91.452 A50 50 0 0 1 20.611 90.451 Z" fill="#AB6DE0" />
    <path d="M50 50 L20.611 90.451 A50 50 0 0 1 19.217 89.401 Z" fill="#AE6EDD" />
    <path d="M50 50 L19.217 89.401 A50 50 0 0 1 17.861 88.302 Z" fill="#B26EDB" />
    <path d="M50 50 L17.861 88.302 A50 50 0 0 1 16.543 87.157 Z" fill="#B56FD8" />
    <path d="M50 50 L16.543 87.157 A50 50 0 0 1 15.267 85.967 Z" fill="#B870D6" />
    <path d="M50 50 L15.267 85.967 A50 50 0 0 1 14.033 84.733 Z" fill="#BB70D3" />
    <path d="M50 50 L14.033 84.733 A50 50 0 0 1 12.843 83.457 Z" fill="#BF71D0" />
    <path d="M50 50 L12.843 83.457 A50 50 0 0 1 11.698 82.139 Z" fill="#C272CE" />
    <path d="M50 50 L11.698 82.139 A50 50 0 0 1 10.599 80.783 Z" fill="#C572CB" />
    <path d="M50 50 L10.599 80.783 A50 50 0 0 1 9.549 79.389 Z" fill="#C973C8" />
    <path d="M50 50 L9.549 79.389 A50 50 0 0 1 8.548 77.960 Z" fill="#CC74C6" />
    <path d="M50 50 L8.548 77.960 A50 50 0 0 1 7.598 76.496 Z" fill="#CF74C3" />
    <path d="M50 50 L7.598 76.496 A50 50 0 0 1 6.699 75.000 Z" fill="#D275C1" />
    <path d="M50 50 L6.699 75.000 A50 50 0 0 1 5.853 73.474 Z" fill="#D676BE" />
    <path d="M50 50 L5.853 73.474 A50 50 0 0 1 5.060 71.919 Z" fill="#D976BB" />
    <path d="M50 50 L5.060 71.919 A50 50 0 0 1 4.323 70.337 Z" fill="#DC77B9" />
    <path d="M50 50 L4.323 70.337 A50 50 0 0 1 3.641 68.730 Z" fill="#DF78B6" />
    <path d="M50 50 L3.641 68.730 A50 50 0 0 1 3.015 67.101 Z" fill="#E379B3" />
    <path d="M50 50 L3.015 67.101 A50 50 0 0 1 2.447 65.451 Z" fill="#E679B1" />
    <path d="M50 50 L2.447 65.451 A50 50 0 0 1 1.937 63.782 Z" fill="#E97AAE" />
    <path d="M50 50 L1.937 63.782 A50 50 0 0 1 1.485 62.096 Z" fill="#EC7BAB" />
    <path d="M50 50 L1.485 62.096 A50 50 0 0 1 1.093 60.396 Z" fill="#F07BA9" />
    <path d="M50 50 L1.093 60.396 A50 50 0 0 1 0.760 58.682 Z" fill="#F37CA6" />
    <path d="M50 50 L0.760 58.682 A50 50 0 0 1 0.487 56.959 Z" fill="#F67DA4" />
    <path d="M50 50 L0.487 56.959 A50 50 0 0 1 0.274 55.226 Z" fill="#F87DA1" />
    <path d="M50 50 L0.274 55.226 A50 50 0 0 1 0.122 53.488 Z" fill="#F87C9F" />
    <path d="M50 50 L0.122 53.488 A50 50 0 0 1 0.030 51.745 Z" fill="#F87C9D" />
    <path d="M50 50 L0.030 51.745 A50 50 0 0 1 0.000 50.000 Z" fill="#F97B9B" />
    <path d="M50 50 L0.000 50.000 A50 50 0 0 1 0.030 48.255 Z" fill="#F97B98" />
    <path d="M50 50 L0.030 48.255 A50 50 0 0 1 0.122 46.512 Z" fill="#F97A96" />
    <path d="M50 50 L0.122 46.512 A50 50 0 0 1 0.274 44.774 Z" fill="#F97A94" />
    <path d="M50 50 L0.274 44.774 A50 50 0 0 1 0.487 43.041 Z" fill="#F97A92" />
    <path d="M50 50 L0.487 43.041 A50 50 0 0 1 0.760 41.318 Z" fill="#FA7990" />
    <path d="M50 50 L0.760 41.318 A50 50 0 0 1 1.093 39.604 Z" fill="#FA798D" />
    <path d="M50 50 L1.093 39.604 A50 50 0 0 1 1.485 37.904 Z" fill="#FA788B" />
    <path d="M50 50 L1.485 37.904 A50 50 0 0 1 1.937 36.218 Z" fill="#FA7889" />
    <path d="M50 50 L1.937 36.218 A50 50 0 0 1 2.447 34.549 Z" fill="#FA7787" />
    <path d="M50 50 L2.447 34.549 A50 50 0 0 1 3.015 32.899 Z" fill="#FB7785" />
    <path d="M50 50 L3.015 32.899 A50 50 0 0 1 3.641 31.270 Z" fill="#FB7682" />
    <path d="M50 50 L3.641 31.270 A50 50 0 0 1 4.323 29.663 Z" fill="#FB7680" />
    <path d="M50 50 L4.323 29.663 A50 50 0 0 1 5.060 28.081 Z" fill="#FB757E" />
    <path d="M50 50 L5.060 28.081 A50 50 0 0 1 5.853 26.526 Z" fill="#FB757C" />
    <path d="M50 50 L5.853 26.526 A50 50 0 0 1 6.699 25.000 Z" fill="#FC747A" />
    <path d="M50 50 L6.699 25.000 A50 50 0 0 1 7.598 23.504 Z" fill="#FC7477" />
    <path d="M50 50 L7.598 23.504 A50 50 0 0 1 8.548 22.040 Z" fill="#FC7375" />
    <path d="M50 50 L8.548 22.040 A50 50 0 0 1 9.549 20.611 Z" fill="#FC7373" />
    <path d="M50 50 L9.549 20.611 A50 50 0 0 1 10.599 19.217 Z" fill="#FC7271" />
    <path d="M50 50 L10.599 19.217 A50 50 0 0 1 11.698 17.861 Z" fill="#FD726F" />
    <path d="M50 50 L11.698 17.861 A50 50 0 0 1 12.843 16.543 Z" fill="#FD726C" />
    <path d="M50 50 L12.843 16.543 A50 50 0 0 1 14.033 15.267 Z" fill="#FD716A" />
    <path d="M50 50 L14.033 15.267 A50 50 0 0 1 15.267 14.033 Z" fill="#FD746A" />
    <path d="M50 50 L15.267 14.033 A50 50 0 0 1 16.543 12.843 Z" fill="#FD7769" />
    <path d="M50 50 L16.543 12.843 A50 50 0 0 1 17.861 11.698 Z" fill="#FD7A69" />
    <path d="M50 50 L17.861 11.698 A50 50 0 0 1 19.217 10.599 Z" fill="#FD7E69" />
    <path d="M50 50 L19.217 10.599 A50 50 0 0 1 20.611 9.549 Z" fill="#FD8168" />
    <path d="M50 50 L20.611 9.549 A50 50 0 0 1 22.040 8.548 Z" fill="#FD8468" />
    <path d="M50 50 L22.040 8.548 A50 50 0 0 1 23.504 7.598 Z" fill="#FD8868" />
    <path d="M50 50 L23.504 7.598 A50 50 0 0 1 25.000 6.699 Z" fill="#FD8B67" />
    <path d="M50 50 L25.000 6.699 A50 50 0 0 1 26.526 5.853 Z" fill="#FD8E67" />
    <path d="M50 50 L26.526 5.853 A50 50 0 0 1 28.081 5.060 Z" fill="#FD9267" />
    <path d="M50 50 L28.081 5.060 A50 50 0 0 1 29.663 4.323 Z" fill="#FD9566" />
    <path d="M50 50 L29.663 4.323 A50 50 0 0 1 31.270 3.641 Z" fill="#FE9866" />
    <path d="M50 50 L31.270 3.641 A50 50 0 0 1 32.899 3.015 Z" fill="#FE9B66" />
    <path d="M50 50 L32.899 3.015 A50 50 0 0 1 34.549 2.447 Z" fill="#FE9F65" />
    <path d="M50 50 L34.549 2.447 A50 50 0 0 1 36.218 1.937 Z" fill="#FEA265" />
    <path d="M50 50 L36.218 1.937 A50 50 0 0 1 37.904 1.485 Z" fill="#FEA565" />
    <path d="M50 50 L37.904 1.485 A50 50 0 0 1 39.604 1.093 Z" fill="#FEA964" />
    <path d="M50 50 L39.604 1.093 A50 50 0 0 1 41.318 0.760 Z" fill="#FEAC64" />
    <path d="M50 50 L41.318 0.760 A50 50 0 0 1 43.041 0.487 Z" fill="#FEAF64" />
    <path d="M50 50 L43.041 0.487 A50 50 0 0 1 44.774 0.274 Z" fill="#FEB263" />
    <path d="M50 50 L44.774 0.274 A50 50 0 0 1 46.512 0.122 Z" fill="#FEB663" />
    <path d="M50 50 L46.512 0.122 A50 50 0 0 1 48.255 0.030 Z" fill="#FEB963" />
    <path d="M50 50 L48.255 0.030 A50 50 0 0 1 50.000 0.000 Z" fill="#FEBC62" />
  </g>
</svg>
